<svg width="110" height="32" viewBox="0 0 110 32" fill="none" xmlns="http://www.w3.org/2000/svg">
<path fill-rule="evenodd" clip-rule="evenodd" d="M6.71812 6.71757C7.71011 5.72557 9.59348 5.34578 12.2718 6.13352C12.4606 6.18905 12.6515 6.24999 12.8442 6.31629C11.6298 7.1782 10.44 8.18116 9.31084 9.31029C8.87424 9.74689 8.4572 10.1918 8.06039 10.643C7.51329 11.2651 7.57406 12.2129 8.19613 12.76C8.81819 13.3071 9.766 13.2463 10.3131 12.6243C10.6675 12.2213 11.0407 11.8231 11.4322 11.4316C12.9144 9.94939 14.4837 8.73835 16.0284 7.81847C17.573 8.73835 19.1423 9.94939 20.6245 11.4316C22.3065 13.1136 23.6393 14.9078 24.5937 16.6506C24.6229 16.7154 24.6568 16.7781 24.6951 16.8384C25.2348 17.8505 25.6458 18.8433 25.9226 19.7844C26.7104 22.4627 26.3306 24.346 25.3386 25.338C24.3466 26.33 22.4632 26.7098 19.7849 25.9221C19.5961 25.8666 19.4052 25.8056 19.2125 25.7393C20.4269 24.8774 21.6167 23.8745 22.7459 22.7453C23.1635 22.3277 23.5633 21.9024 23.9445 21.4713C24.4934 20.8508 24.4352 19.9028 23.8147 19.354C23.1942 18.8051 22.2462 18.8632 21.6974 19.4838C21.3568 19.8689 20.999 20.2495 20.6245 20.624C19.1423 22.1062 17.573 23.3173 16.0284 24.2371C14.4837 23.3173 12.9144 22.1062 11.4322 20.624C8.71081 17.9026 6.90357 14.8875 6.13407 12.2712C5.34634 9.59293 5.72612 7.70956 6.71812 6.71757ZM13.1183 3.25542C14.0718 3.53587 15.0479 3.92169 16.0284 4.40533C17.0088 3.92169 17.9849 3.53588 18.9384 3.25542C22.0611 2.33701 25.3277 2.46405 27.4599 4.59625C28.9191 6.05539 29.4396 8.07153 29.3296 10.159C29.2317 12.0189 28.6353 14.0318 27.6508 16.0278C28.1345 17.0082 28.5203 17.9843 28.8007 18.9379C29.7192 22.0605 29.5921 25.3272 27.4599 27.4594C25.3277 29.5916 22.0611 29.7186 18.9384 28.8002C17.9849 28.5197 17.0088 28.1339 16.0284 27.6503C15.0479 28.1339 14.0718 28.5197 13.1183 28.8002C9.99566 29.7186 6.72899 29.5916 4.5968 27.4594C3.13867 26.0012 2.61787 23.9868 2.72684 21.9009C2.82406 20.0398 3.42065 18.0253 4.40591 16.0279C3.92226 15.0474 3.53643 14.0713 3.25597 13.1177C2.33756 9.99511 2.4646 6.72844 4.5968 4.59624C6.72899 2.46405 9.99566 2.33701 13.1183 3.25542ZM22.7459 9.31029C21.6167 8.18116 20.4269 7.1782 19.2125 6.31629C19.4052 6.24999 19.5961 6.18905 19.7849 6.13352C22.4632 5.34579 24.3466 5.72557 25.3386 6.71757C26.0228 7.40176 26.4138 8.48246 26.3338 10.0013C26.2886 10.8601 26.0921 11.8198 25.7399 12.8437C24.878 11.6293 23.875 10.4394 22.7459 9.31029ZM9.31084 22.7453C10.44 23.8745 11.6298 24.8774 12.8442 25.7393C12.6515 25.8056 12.4606 25.8666 12.2718 25.9221C9.59348 26.7098 7.71011 26.33 6.71812 25.338C6.03437 24.6543 5.6435 23.5746 5.72275 22.0574C5.76765 21.1979 5.9642 20.2371 6.31683 19.2119C7.17874 20.4263 8.1817 21.6162 9.31084 22.7453ZM19 16C19 17.6569 17.6569 19 16 19C14.3431 19 13 17.6569 13 16C13 14.3431 14.3431 13 16 13C17.6569 13 19 14.3431 19 16Z" fill="#ADADAD"/>
<path d="M41.6016 24V8.29688H44.8594V24H41.6016ZM36.7734 11.1094V8.29688H49.6875V11.1094H36.7734ZM53.7431 10.0312C53.1806 10.0312 52.6962 9.82812 52.29 9.42188C51.8837 9.01562 51.6806 8.54688 51.6806 8.01562C51.6806 7.45312 51.8837 6.97656 52.29 6.58594C52.6962 6.19531 53.1806 6 53.7431 6C54.1181 6 54.4619 6.09375 54.7744 6.28125C55.0869 6.45313 55.3369 6.69531 55.5244 7.00781C55.7119 7.30469 55.8056 7.64062 55.8056 8.01562C55.8056 8.35938 55.7119 8.6875 55.5244 9C55.3369 9.3125 55.0869 9.5625 54.7744 9.75C54.4619 9.9375 54.1181 10.0312 53.7431 10.0312ZM52.5478 24V12.1641H55.5244V24H52.5478ZM50.6494 14.6953V12.1641H55.5244V14.6953H50.6494ZM73.4784 24V17.1328C73.4784 16.3359 73.2675 15.7422 72.8456 15.3516C72.4394 14.9609 71.9003 14.7656 71.2284 14.7656C70.6972 14.7656 70.2362 14.9375 69.8456 15.2812C69.455 15.625 69.0878 16.0312 68.7441 16.5L68.1816 14.3203C68.6503 13.6484 69.205 13.0703 69.8456 12.5859C70.5019 12.1016 71.2597 11.8594 72.1191 11.8594C72.9159 11.8594 73.6425 12.0391 74.2987 12.3984C74.9706 12.7578 75.5019 13.3047 75.8925 14.0391C76.2831 14.7578 76.4784 15.6562 76.4784 16.7344V24H73.4784ZM58.2441 24V12.1641H61.2206V24H58.2441ZM65.8612 24L65.8378 17.1328C65.8378 16.3359 65.6269 15.7422 65.205 15.3516C64.7987 14.9609 64.2675 14.7656 63.6112 14.7656C63.0644 14.7656 62.5878 14.9375 62.1816 15.2812C61.7753 15.625 61.4003 16.0312 61.0566 16.5V13.8516C61.3066 13.5234 61.5878 13.2109 61.9003 12.9141C62.2128 12.6016 62.58 12.3516 63.0019 12.1641C63.4237 11.9609 63.9159 11.8594 64.4784 11.8594C65.4316 11.8594 66.2753 12.1172 67.0097 12.6328C67.7597 13.1328 68.2831 13.875 68.58 14.8594L68.8378 15.9844V24H65.8612ZM84.4481 24.3516C83.5731 24.3516 82.7528 24.2031 81.9872 23.9062C81.2216 23.5938 80.5419 23.1641 79.9481 22.6172C79.37 22.0703 78.9169 21.4219 78.5887 20.6719C78.2606 19.9219 78.0966 19.1016 78.0966 18.2109C78.0966 17.0547 78.3544 16 78.87 15.0469C79.3856 14.0781 80.0966 13.3047 81.0028 12.7266C81.9091 12.1484 82.9403 11.8594 84.0966 11.8594C85.2528 11.8594 86.245 12.1094 87.0731 12.6094C87.9169 13.1094 88.5575 13.8047 88.995 14.6953C89.4481 15.5703 89.6747 16.5859 89.6747 17.7422V19.0078H80.8387V16.9688H86.8153C86.7841 16.3906 86.6278 15.9219 86.3466 15.5625C86.0653 15.1875 85.7216 14.9141 85.3153 14.7422C84.9091 14.5547 84.4794 14.4609 84.0262 14.4609C83.4169 14.4609 82.8856 14.6172 82.4325 14.9297C81.995 15.2422 81.6512 15.6797 81.4012 16.2422C81.1512 16.8047 81.0262 17.4609 81.0262 18.2109C81.0262 18.8828 81.1747 19.4766 81.4716 19.9922C81.7684 20.5078 82.1825 20.9141 82.7137 21.2109C83.2606 21.5078 83.8778 21.6562 84.5653 21.6562C85.4403 21.6562 86.2216 21.4844 86.9091 21.1406C87.6122 20.7969 88.1669 20.4453 88.5731 20.0859V22.8516C88.3387 23.0703 88.0106 23.2969 87.5887 23.5312C87.1669 23.7656 86.6825 23.9609 86.1356 24.1172C85.6044 24.2734 85.0419 24.3516 84.4481 24.3516ZM91.4334 24V7.125H94.41V24H91.4334ZM97.0359 29.625L101.723 21.0938L105.614 12.1641H109.013L100.411 29.625H97.0359ZM100.997 23.9531L95.4891 12.1641H98.9578L103.223 21.7266L100.997 23.9531Z" fill="#ADADAD"/>
</svg>
