<svg width="118" height="32" viewBox="0 0 118 32" fill="none" xmlns="http://www.w3.org/2000/svg">
<path d="M13.9997 4.33331V27.6666M22.2493 7.7504L5.7501 24.2496M25.6663 16H2.33301M22.2493 24.2496L5.7501 7.7504" stroke="white" stroke-width="2.5" stroke-linecap="round" stroke-linejoin="round"/>
<path d="M38.5352 25V6.67969H42.3359V25H38.5352ZM32.9023 9.96094V6.67969H47.9688V9.96094H32.9023ZM52.7003 8.70312C52.0441 8.70312 51.479 8.46615 51.005 7.99219C50.531 7.51823 50.2941 6.97135 50.2941 6.35156C50.2941 5.69531 50.531 5.13932 51.005 4.68359C51.479 4.22786 52.0441 4 52.7003 4C53.1378 4 53.5389 4.10938 53.9034 4.32812C54.268 4.52865 54.5597 4.8112 54.7784 5.17578C54.9972 5.52214 55.1066 5.91406 55.1066 6.35156C55.1066 6.7526 54.9972 7.13542 54.7784 7.5C54.5597 7.86458 54.268 8.15625 53.9034 8.375C53.5389 8.59375 53.1378 8.70312 52.7003 8.70312ZM51.3058 25V11.1914H54.7784V25H51.3058ZM49.0909 14.1445V11.1914H54.7784V14.1445H49.0909ZM75.7248 25V16.9883C75.7248 16.0586 75.4788 15.3659 74.9866 14.9102C74.5126 14.4544 73.8837 14.2266 73.0998 14.2266C72.4801 14.2266 71.9423 14.4271 71.4866 14.8281C71.0308 15.2292 70.6024 15.7031 70.2014 16.25L69.5452 13.707C70.092 12.9232 70.7392 12.2487 71.4866 11.6836C72.2522 11.1185 73.1363 10.8359 74.1389 10.8359C75.0686 10.8359 75.9163 11.0456 76.6819 11.4648C77.4657 11.8841 78.0855 12.5221 78.5413 13.3789C78.997 14.2174 79.2248 15.2656 79.2248 16.5234V25H75.7248ZM57.9514 25V11.1914H61.4241V25H57.9514ZM66.8381 25L66.8108 16.9883C66.8108 16.0586 66.5647 15.3659 66.0725 14.9102C65.5985 14.4544 64.9788 14.2266 64.2131 14.2266C63.5751 14.2266 63.0191 14.4271 62.5452 14.8281C62.0712 15.2292 61.6337 15.7031 61.2327 16.25V13.1602C61.5243 12.7773 61.8524 12.4128 62.217 12.0664C62.5816 11.7018 63.01 11.4102 63.5022 11.1914C63.9944 10.9544 64.5686 10.8359 65.2248 10.8359C66.3368 10.8359 67.3212 11.1367 68.178 11.7383C69.053 12.3216 69.6636 13.1875 70.01 14.3359L70.3108 15.6484V25H66.8381ZM88.5228 25.4102C87.502 25.4102 86.5449 25.237 85.6517 24.8906C84.7585 24.526 83.9655 24.0247 83.2728 23.3867C82.5983 22.7487 82.0697 21.9922 81.6869 21.1172C81.3041 20.2422 81.1127 19.2852 81.1127 18.2461C81.1127 16.8971 81.4134 15.6667 82.015 14.5547C82.6166 13.4245 83.446 12.5221 84.5033 11.8477C85.5606 11.1732 86.7637 10.8359 88.1127 10.8359C89.4616 10.8359 90.6192 11.1276 91.5853 11.7109C92.5697 12.2943 93.3171 13.1055 93.8275 14.1445C94.3561 15.1654 94.6205 16.3503 94.6205 17.6992V19.1758H84.3119V16.7969H91.2845C91.2481 16.1224 91.0658 15.5755 90.7377 15.1562C90.4095 14.7188 90.0085 14.3997 89.5345 14.1992C89.0606 13.9805 88.5593 13.8711 88.0306 13.8711C87.3197 13.8711 86.6999 14.0534 86.1712 14.418C85.6608 14.7826 85.2598 15.293 84.9681 15.9492C84.6765 16.6055 84.5306 17.3711 84.5306 18.2461C84.5306 19.0299 84.7038 19.7227 85.0502 20.3242C85.3965 20.9258 85.8796 21.3997 86.4994 21.7461C87.1374 22.0924 87.8574 22.2656 88.6595 22.2656C89.6804 22.2656 90.5918 22.0651 91.3939 21.6641C92.2142 21.263 92.8614 20.8529 93.3353 20.4336V23.6602C93.0619 23.9154 92.6791 24.1797 92.1869 24.4531C91.6947 24.7266 91.1296 24.9544 90.4916 25.1367C89.8718 25.319 89.2155 25.4102 88.5228 25.4102ZM96.6723 25V5.3125H100.145V25H96.6723ZM103.209 31.5625L108.677 21.6094L113.216 11.1914H117.181L107.146 31.5625H103.209ZM107.83 24.9453L101.404 11.1914H105.451L110.427 22.3477L107.83 24.9453Z" fill="white"/>
</svg>
