<svg width="24" height="24" viewBox="0 0 24 24" fill="none" xmlns="http://www.w3.org/2000/svg">
<path d="M9 8H4C3.44772 8 3 8.44772 3 9V20C3 20.5523 3.44772 21 4 21H9C9.55228 21 10 20.5523 10 20V9C10 8.44772 9.55228 8 9 8Z" stroke="black" stroke-width="2" stroke-linecap="round" stroke-linejoin="round"/>
<path d="M20 8H15C14.4477 8 14 8.44772 14 9V20C14 20.5523 14.4477 21 15 21H20C20.5523 21 21 20.5523 21 20V9C21 8.44772 20.5523 8 20 8Z" fill="black" stroke="black" stroke-width="2" stroke-linecap="round" stroke-linejoin="round"/>
</svg>
